<svg width="29" height="28" viewBox="0 0 29 28" fill="none" xmlns="http://www.w3.org/2000/svg">
<path d="M28.2692 0.754333H0.576923C0.258462 0.754333 0 1.0147 0 1.33551V26.9073C0 27.2287 0.258462 27.4885 0.576923 27.4885H28.2692C28.5883 27.4885 28.8462 27.2287 28.8462 26.9073V1.33551C28.8462 1.0147 28.5883 0.754333 28.2692 0.754333ZM13.6771 14.5323L7.90789 20.3441C7.79539 20.4574 7.64769 20.5143 7.5 20.5143C7.35231 20.5143 7.20462 20.4574 7.09212 20.3441C6.86654 20.1168 6.86654 19.7495 7.09212 19.5223L10.3554 16.2349C11.5166 15.0652 11.5166 13.1777 10.3554 12.0079L7.09212 8.72052C6.86654 8.49328 6.86654 8.12598 7.09212 7.89874C7.31769 7.6715 7.68231 7.6715 7.90789 7.89874L13.6771 13.7105C13.9027 13.9377 13.9027 14.3051 13.6771 14.5323ZM21.3462 20.5143H15.5769C15.2579 20.5143 15 20.2546 15 19.9332C15 19.6118 15.2579 19.352 15.5769 19.352H21.3462C21.6652 19.352 21.9231 19.6118 21.9231 19.9332C21.9231 20.2546 21.6652 20.5143 21.3462 20.5143Z" fill="#DDDDDD"/>
</svg>
